<?xml version="1.0" encoding="utf-8"?>
<!-- Generator: Adobe Illustrator 22.0.0, SVG Export Plug-In . SVG Version: 6.00 Build 0)  -->
<svg version="1.1" id="图层_1" xmlns="http://www.w3.org/2000/svg" xmlns:xlink="http://www.w3.org/1999/xlink" x="0px" y="0px"
	 viewBox="0 0 2577.6 597" style="enable-background:new 0 0 2577.6 597;" xml:space="preserve">
<style type="text/css">
	.st0{fill:#00A9FF;}
</style>
<title>资源 1</title>
<g id="图层_2_1_">
	<g id="图层_1-2">
		<path class="st0" d="M1344.7,300.8l-1.1,0.4c-0.9-1.5-1.9-2.9-2.8-4.4c-61.3-96.2-122.7-192.4-184-288.6c-1.7-2.7-3-4.9-7.2-4.9
			c-45.8,0.2-91.7,0.1-137.5,0.3c-2.5,0.2-4.9,1.3-6.7,3.1c-6.7,6.7-13.1,13.7-19.4,20.9c-1.7,2-2.6,4.4-2.7,7
			c-0.5,64.7-0.8,129.3-1.1,194c-0.6,114-1.1,228-1.6,342c0,7,0,13.9,0,21.3h6.4c44.8,0,89.7-0.4,134.5,0.3
			c11.9,0.2,21.2-2.3,28.8-11.6c2.2-2.8,3.6-5,3.6-8.7c-0.1-88.7-0.1-177.3-0.1-266v-7c1.9,2.5,2.9,3.8,3.8,5.1
			c65.7,93.9,131.4,187.8,197.1,281.7c2.3,3.2,4.6,4.5,8.5,4.4c39.2-0.3,78.3-0.7,117.5-0.3c9.9,0.1,18.1-1.8,25.2-9
			c2.6-2.7,4.2-4.9,4.1-8.8c-0.3-92.8-0.6-185.7-0.8-278.5c-0.2-89-0.3-178-0.3-267c0-8.7-1.2-15.8-8.2-21.6
			c-2.6-2.1-4.8-3.5-8.2-3.5c-47.3,0.1-94.7,0.1-142,0.1h-5.9L1344.7,300.8z M2080.9,169.3v-6.5c0-43.8-0.3-87.7,0.2-131.5
			c0.1-9-2.3-14.6-10-19.3c-5.6-3.5-10.8-5.4-17.5-5.4c-69.5,0.2-139,0.1-208.5,0.1c-6.3,0-12.7-0.2-19,0.6
			c-53.3,6.5-103.1,23.6-146.2,55.7c-71.4,53.1-110.6,125-118,213.8c-4.8,57.9,6.3,112.6,34,163.9
			c50.8,94.4,149.3,153.2,256.5,153.1c64.7,0,129.3-0.3,194,0.3c11.8,0.1,21.7-2.1,30.5-10c2.6-2.3,4.1-4.2,4-7.8
			c-0.1-46.7-0.2-93.3-0.1-140V431h-6.4c-75.7,0-151.3,0-227,0c-20.2,0-39.3-4.3-56.4-15.8c-17.8-12-32.5-27-43.3-45.7
			c-18-31-21.2-64.4-14.7-99.1c5.8-31.4,22.6-56.4,46.7-77c21.5-18.3,46.5-24.4,74.2-24.3c73.3,0.3,146.6,0.1,220,0.1H2080.9z
			 M750,302c0,88.3,0.2,176.6-0.3,264.9c-0.1,10.7,2.5,17.8,11.8,23.1c3.9,2.2,7.3,3.9,11.9,3.9c38.3-0.2,76.6-0.4,115,0.1
			c10.6,0.2,19.3-1.9,27.2-9.1c3.3-3,4.8-5.5,4.8-10c-0.1-177.6,0-355.2,0.2-532.8c0-13.6-2.5-24.1-13.6-32.2
			c-2.7-2-4.9-3.3-8.3-3.3c-38.2,0.1-76.3,0.7-114.5-0.3C771.3,6.1,761.8,9,754,19.1c-2.4,3.2-4.1,5.8-4.1,10
			C750,120.1,750,211,750,302z M2422.5,420.8V266.6h155.1V161.3h-155.3V6.6h-105.4v155h-154.2v105.2h154.5v154L2422.5,420.8z
			 M1795.7,287.6c0.2,3.9,0.2,7.2,0.7,10.5c3.5,23.3,12.6,44.3,25,64.1c16,25.5,38.5,41.7,67.6,49.2c22.4,5.8,45.5,8.7,68.7,8.6h123
			c-0.9-2.2-1.5-3.9-2.2-5.5c-17.4-40.5-34.9-80.9-52.2-121.4c-1.8-4.2-3.7-5.6-8.3-5.6c-72,0.2-143.9,0.2-215.8,0.1H1795.7z"/>
		<path class="st0" d="M394,0c10.4,1,20.9,1.8,31.3,3c80.4,9.3,150.9,39.6,207.3,99c38.5,40.5,61,88.9,68.5,144.2
			c7.5,55.6,3.3,110.1-18.7,162.3c-28,66.4-76.3,114.3-139,148.4c-39.1,21.3-81.3,33-125.5,37.2c-18.4,1.7-36.9,2.6-55.4,2.6
			c-118.5,0.2-237,0.3-355.4,0.1c-2.3,0-4.7,0.2-7,0.3V224h172.2v218.7h4.8c65.5,0,131,0.4,196.5-0.3c16-0.3,31.9-2.2,47.5-5.7
			c50.1-11.1,107.3-50.6,112.5-124c3.1-44.3-9.2-83-42-114s-72.6-44.5-117-44.6C249.7,153.8,124.8,154,0,154v-1
			c1.4-1.6,2.8-3.2,4-4.9C39,98.8,74,49.4,109,0H394z"/>
		<path class="st0" d="M1344.7,300.8V1.4h5.9c47.3,0,94.7,0,142-0.1c3.5,0,5.6,1.4,8.2,3.5c7,5.8,8.2,12.9,8.2,21.6
			c-0.1,89,0,178,0.3,267c0.2,92.8,0.4,185.7,0.8,278.5c0,3.9-1.5,6.1-4.1,8.8c-7.1,7.2-15.2,9-25.2,9c-39.2-0.3-78.3,0-117.5,0.3
			c-4,0-6.3-1.2-8.5-4.4c-65.6-94-131.3-187.9-197.1-281.7c-0.9-1.3-1.9-2.6-3.8-5.1v7c0,88.7,0,177.3,0.1,266
			c0,3.6-1.4,5.9-3.6,8.7c-7.6,9.3-16.8,11.8-28.8,11.6c-44.8-0.7-89.7-0.3-134.5-0.3h-6.4c0-7.5,0-14.4,0-21.3
			c0.5-114,1.1-228,1.6-342c0.3-64.7,0.7-129.3,1.1-194c0.1-2.6,1.1-5,2.7-7c6.2-7.2,12.7-14.1,19.4-20.9c1.8-1.8,4.2-2.9,6.7-3.1
			c45.8-0.2,91.7-0.1,137.5-0.3c4.1,0,5.5,2.3,7.2,4.9c61.3,96.2,122.7,192.4,184,288.6c0.9,1.5,1.9,2.9,2.8,4.4L1344.7,300.8z"/>
		<path class="st0" d="M2080.9,169.3h-6.9c-73.3,0-146.6,0.2-220-0.1c-27.6-0.1-52.7,6-74.2,24.3c-24.1,20.6-40.9,45.5-46.7,77
			c-6.4,34.6-3.2,68,14.7,99.1c10.8,18.6,25.5,33.7,43.3,45.7c17,11.5,36.1,15.8,56.4,15.8c75.7,0,151.3,0,227,0h6.4v5.4
			c0,46.7,0,93.3,0.1,140c0,3.6-1.5,5.5-4,7.8c-8.8,7.9-18.7,10.1-30.5,10c-64.7-0.5-129.3-0.3-194-0.3
			c-107.2,0.1-205.7-58.7-256.5-153.1c-27.7-51.3-38.9-105.9-34-163.9c7.4-88.8,46.6-160.7,118-213.8c43.2-32.1,93-49.2,146.3-55.7
			c6.2-0.8,12.6-0.6,19-0.6c69.5,0,139,0,208.5-0.1c6.6,0,11.9,1.9,17.5,5.4c7.6,4.8,10.1,10.3,10,19.3
			c-0.6,43.8-0.2,87.7-0.2,131.5L2080.9,169.3z"/>
		<path class="st0" d="M750,302c0-91,0-181.9-0.1-272.9c0-4.2,1.7-6.8,4.1-10c7.7-10.1,17.3-13,30.1-12.7
			c38.1,0.9,76.3,0.4,114.5,0.3c3.4,0,5.7,1.3,8.3,3.3c11.1,8.2,13.6,18.6,13.6,32.2c-0.5,177.6-0.6,355.2-0.2,532.8
			c0,4.4-1.5,7-4.8,10c-7.9,7.1-16.6,9.2-27.2,9.1c-38.3-0.6-76.6-0.3-115-0.1c-4.6,0-8-1.7-11.9-3.9c-9.3-5.3-11.8-12.4-11.8-23.1
			C750.2,478.6,750,390.3,750,302z"/>
		<path class="st0" d="M2422.5,420.8h-105.3v-154h-154.5V161.6h154.2V6.6h105.4v154.7h155.3v105.3h-155.1V420.8z"/>
		<path class="st0" d="M1795.7,287.6h6.4c71.9,0,143.9,0,215.8-0.1c4.6,0,6.6,1.4,8.3,5.6c17.2,40.5,34.8,81,52.2,121.5
			c0.7,1.6,1.3,3.3,2.2,5.5h-123c-23.2,0.1-46.2-2.8-68.7-8.6c-29.2-7.5-51.6-23.7-67.6-49.2c-12.4-19.8-21.5-40.9-25-64.1
			C1795.9,294.9,1795.9,291.5,1795.7,287.6z"/>
	</g>
</g>
</svg>
